SplineFontDB: 3.2
FontName: TextDropDistance
FullName: Text Drop Distance
FamilyName: Text Drop Distance
Weight: Standard
Copyright: Copyright (c) 2024, Ruggery Iury.
UComments: "2024-12-1: Created with FontForge (http://fontforge.org)"
Version: 001.000
ItalicAngle: 0
UnderlinePosition: -108
UnderlineWidth: 54
Ascent: 22
Descent: 4
InvalidEm: 0
LayerCount: 2
Layer: 0 0 "Back" 1
Layer: 1 0 "Fore" 0
XUID: [1021 981 -2101964692 9530]
OS2Version: 0
OS2_WeightWidthSlopeOnly: 0
OS2_UseTypoMetrics: 1
CreationTime: 1733077493
ModificationTime: 1733109522
OS2TypoAscent: 0
OS2TypoAOffset: 1
OS2TypoDescent: 0
OS2TypoDOffset: 1
OS2TypoLinegap: 0
OS2WinAscent: 0
OS2WinAOffset: 1
OS2WinDescent: 0
OS2WinDOffset: 1
HheadAscent: 0
HheadAOffset: 1
HheadDescent: 0
HheadDOffset: 1
OS2Vendor: 'PfEd'
MarkAttachClasses: 1
DEI: 91125
Encoding: ISO8859-1
UnicodeInterp: none
NameList: AGL For New Fonts
DisplaySize: -48
AntiAlias: 1
FitToEm: 0
WinInfo: 0 38 13
BeginPrivate: 0
EndPrivate
BeginChars: 256 92

StartChar: exclam
Encoding: 33 33 0
Width: 4
VWidth: 1000
Flags: HW
LayerCount: 2
Fore
SplineSet
1 7.2998046875 m 1
 1 20 l 1
 3 20 l 1
 3 7.2998046875 l 1
 1 7.2998046875 l 1
1 0.099609375 m 1
 1 2.900390625 l 1
 3 2.900390625 l 1
 3 0.099609375 l 1
 1 0.099609375 l 1
EndSplineSet
EndChar

StartChar: zero
Encoding: 48 48 1
Width: 16
Flags: HW
LayerCount: 2
Fore
SplineSet
13.5 0 m 2
 2.5 0 l 2
 1.7001953125 0 1 0.7001953125 1 1.5 c 2
 1 18.5 l 2
 1 19.2998046875 1.7001953125 20 2.5 20 c 2
 13.5 20 l 2
 14.2998046875 20 15 19.2998046875 15 18.5 c 2
 15 1.5 l 2
 15 0.7001953125 14.2998046875 0 13.5 0 c 2
3 2 m 1
 13 2 l 1
 13 18 l 1
 3 18 l 1
 3 2 l 1
13.5 18 m 1
 13.5 18 l 1
 13.5 18 l 1
EndSplineSet
EndChar

StartChar: one
Encoding: 49 49 2
Width: 12
Flags: HW
LayerCount: 2
Fore
SplineSet
7 2 m 1
 11 2 l 1
 11 0 l 1
 7 0 l 1
 5 0 l 1
 1 0 l 1
 1 2 l 1
 5 2 l 1
 5 18 l 1
 1 18 l 1
 1 20 l 1
 7 20 l 1
 7 2 l 1
EndSplineSet
EndChar

StartChar: two
Encoding: 50 50 3
Width: 16
Flags: HW
LayerCount: 2
Fore
SplineSet
14.7998046875 0 m 1
 3 0 l 2
 1.900390625 0 1 0.900390625 1 2 c 2
 1 4.5 l 2
 1 5.099609375 1.2998046875 5.7001953125 1.7001953125 6 c 2
 13 15.2998046875 l 1
 13 18 l 1
 1.2001953125 18 l 1
 1.2001953125 20 l 1
 13 20 l 2
 14.099609375 20 15 19.099609375 15 18 c 2
 15 15.2998046875 l 2
 15 14.7001953125 14.7001953125 14.099609375 14.2998046875 13.7998046875 c 2
 3 4.5 l 1
 3 2 l 1
 14.7998046875 2 l 1
 14.7998046875 0 l 1
EndSplineSet
EndChar

StartChar: three
Encoding: 51 51 4
Width: 16
Flags: HW
LayerCount: 2
Fore
SplineSet
14.7998046875 18 m 2
 14.7998046875 11.5 l 2
 14.7998046875 10.900390625 14.599609375 10.400390625 14.2998046875 10 c 0
 14.599609375 9.599609375 14.7998046875 9.099609375 14.7998046875 8.5 c 2
 14.7998046875 2 l 2
 14.7998046875 0.900390625 13.900390625 0 12.7998046875 0 c 2
 1 0 l 1
 1 2 l 1
 12.900390625 2 l 1
 12.900390625 8.5 l 2
 12.900390625 8.7998046875 12.7001953125 9 12.400390625 9 c 2
 3.2998046875 9 l 1
 3.2998046875 11 l 1
 12.2998046875 11 l 2
 12.599609375 11 12.7998046875 11.2001953125 12.7998046875 11.5 c 2
 12.7998046875 18 l 1
 1 18 l 1
 1 20 l 1
 12.7998046875 20 l 2
 13.900390625 20 14.7998046875 19.099609375 14.7998046875 18 c 2
EndSplineSet
EndChar

StartChar: four
Encoding: 52 52 5
Width: 16
Flags: HW
LayerCount: 2
Fore
SplineSet
13.2001953125 0 m 1
 11.2001953125 0 l 1
 11.2001953125 4 l 1
 2 4 l 2
 1.400390625 4 1 4.400390625 1 5 c 2
 1 7.099609375 l 2
 1 7.2998046875 1.099609375 7.599609375 1.2001953125 7.7998046875 c 2
 11.5 19.7001953125 l 2
 11.7998046875 20 12.2001953125 20.099609375 12.599609375 20 c 0
 13 19.7998046875 13.2001953125 19.400390625 13.2001953125 19 c 2
 13.2001953125 6 l 1
 15.2998046875 6 l 1
 15.2998046875 4 l 1
 13.2001953125 4 l 1
 13.2001953125 0 l 1
3 6 m 1
 11.2001953125 6 l 1
 11.2001953125 16.2998046875 l 1
 3 6.7001953125 l 1
 3 6 l 1
EndSplineSet
EndChar

StartChar: five
Encoding: 53 53 6
Width: 16
Flags: HW
LayerCount: 2
Fore
SplineSet
13.400390625 0 m 2
 1 0 l 1
 1 2 l 1
 12.900390625 2 l 1
 12.900390625 9 l 1
 2.5 9 l 2
 1.7001953125 9 1 9.7001953125 1 10.5 c 2
 1 18.5 l 2
 1 19.2998046875 1.7001953125 20 2.5 20 c 2
 14.900390625 20 l 1
 14.900390625 18 l 1
 3 18 l 1
 3 11 l 1
 13.400390625 11 l 2
 14.2001953125 11 14.900390625 10.2998046875 14.900390625 9.5 c 2
 14.900390625 1.5 l 2
 14.900390625 0.7001953125 14.2998046875 0 13.400390625 0 c 2
EndSplineSet
EndChar

StartChar: six
Encoding: 54 54 7
Width: 16
Flags: HW
LayerCount: 2
Fore
SplineSet
13.599609375 0 m 2
 2.5 0 l 2
 1.7001953125 0 1 0.7001953125 1 1.5 c 2
 1 18.5 l 2
 1 19.2998046875 1.7001953125 20 2.5 20 c 2
 15.099609375 20 l 1
 15.099609375 18 l 1
 3 18 l 1
 3 11 l 1
 13.599609375 11 l 2
 14.400390625 11 15.099609375 10.2998046875 15.099609375 9.5 c 2
 15.099609375 1.5 l 2
 15.099609375 0.7001953125 14.400390625 0 13.599609375 0 c 2
3 2 m 1
 13.099609375 2 l 1
 13.099609375 9 l 1
 3 9 l 1
 3 2 l 1
EndSplineSet
EndChar

StartChar: seven
Encoding: 55 55 8
Width: 16
Flags: HW
LayerCount: 2
Fore
SplineSet
13 17.900390625 m 1
 13 17.900390625 l 1
 1 18 l 1
 1 20 l 1
 13.2998046875 20 l 2
 13.7998046875 20 14.2998046875 19.7001953125 14.599609375 19.2001953125 c 2
 14.900390625 18.7001953125 l 2
 15.2001953125 18.2998046875 15.2001953125 17.7998046875 15 17.2998046875 c 2
 6.7998046875 0 l 1
 4.599609375 0 l 1
 13 17.900390625 l 1
EndSplineSet
EndChar

StartChar: eight
Encoding: 56 56 9
Width: 16
Flags: HW
LayerCount: 2
Fore
SplineSet
15.2998046875 18 m 2
 15.2998046875 11.5 l 2
 15.2998046875 10.900390625 15.099609375 10.400390625 14.7998046875 10 c 0
 15.099609375 9.599609375 15.2998046875 9.099609375 15.2998046875 8.5 c 2
 15.2998046875 2 l 2
 15.2998046875 0.900390625 14.400390625 0 13.2998046875 0 c 2
 3 0 l 2
 1.900390625 0 1 0.900390625 1 2 c 2
 1 8.5 l 2
 1 9.099609375 1.2001953125 9.599609375 1.5 10 c 0
 1.2001953125 10.400390625 1 10.900390625 1 11.5 c 2
 1 18 l 2
 1 19.099609375 1.900390625 20 3 20 c 2
 13.2998046875 20 l 2
 14.400390625 20 15.2998046875 19.099609375 15.2998046875 18 c 2
3 18 m 1
 3 18 l 1
 3 11.5 l 2
 3 11.2001953125 3.2001953125 11 3.5 11 c 2
 12.7998046875 11 l 2
 13 11 13.2998046875 11.2001953125 13.2998046875 11.5 c 2
 13.2998046875 18 l 1
 3 18 l 1
13.2998046875 2 m 1
 13.2998046875 8.5 l 2
 13.2998046875 8.7998046875 13.099609375 9 12.7998046875 9 c 2
 3.5 9 l 2
 3.2001953125 9 3 8.7998046875 3 8.5 c 2
 3 2 l 1
 13.2998046875 2 l 1
EndSplineSet
EndChar

StartChar: nine
Encoding: 57 57 10
Width: 16
Flags: HW
LayerCount: 2
Fore
SplineSet
13.599609375 0 m 2
 1 0 l 1
 1 2 l 5
 13.099609375 2 l 1
 13.099609375 9 l 1
 2.5 9 l 2
 1.7001953125 9 1 9.7001953125 1 10.5 c 2
 1 18.5 l 2
 1 19.2998046875 1.7001953125 20 2.5 20 c 2
 13.599609375 20 l 2
 14.400390625 20 15.099609375 19.2998046875 15.099609375 18.5 c 2
 15.099609375 1.5 l 2
 15.099609375 0.7001953125 14.400390625 0 13.599609375 0 c 2
3 11 m 1
 13.099609375 11 l 1
 13.099609375 18 l 1
 3 18 l 1
 3 11 l 1
EndSplineSet
EndChar

StartChar: dollar
Encoding: 36 36 11
Width: 16
Flags: W
HStem: 0 2<1 7 9 13.0996> 9 2<3.09961 7 9 13.0996> 18 2<3.09961 7 9 15>
VStem: 1.09961 2<11 18> 7 2<-2 0 2 9 11 18 20 22>
CounterMasks: 1 e0
LayerCount: 2
Fore
SplineSet
13.599609375 11 m 2
 14.400390625 11 15.099609375 10.2998046875 15.099609375 9.5 c 2
 15.099609375 1.5 l 2
 15.099609375 0.7001953125 14.400390625 0 13.599609375 0 c 2
 9 0 l 1
 9 -2 l 1
 7 -2 l 1
 7 0 l 1
 1 0 l 1
 1 2 l 1
 7 2 l 1
 7 9 l 1
 2.599609375 9 l 2
 1.7998046875 9 1.099609375 9.7001953125 1.099609375 10.5 c 2
 1.099609375 18.5 l 2
 1.099609375 19.2998046875 1.7001953125 20 2.599609375 20 c 2
 7 20 l 1
 7 22 l 1
 9 22 l 1
 9 20 l 1
 15 20 l 1
 15 18 l 1
 9 18 l 1
 9 11 l 1
 13.599609375 11 l 2
3.099609375 11 m 1
 7 11 l 1
 7 18 l 1
 3.099609375 18 l 1
 3.099609375 11 l 1
13.099609375 2 m 1
 13.099609375 9 l 1
 9 9 l 1
 9 2 l 1
 13.099609375 2 l 1
EndSplineSet
EndChar

StartChar: equal
Encoding: 61 61 12
Width: 16
Flags: HW
LayerCount: 2
Fore
SplineSet
1 12 m 5
 1 14 l 5
 15 14 l 5
 15 12 l 5
 1 12 l 5
1 6 m 5
 1 8 l 5
 15 8 l 5
 15 6 l 5
 1 6 l 5
EndSplineSet
EndChar

StartChar: question
Encoding: 63 63 13
Width: 16
Flags: HW
LayerCount: 2
Fore
SplineSet
7.099609375 0.099609375 m 1
 7.099609375 2.900390625 l 1
 9.099609375 2.900390625 l 1
 9.099609375 0.099609375 l 1
 7.099609375 0.099609375 l 1
9.099609375 4.2001953125 m 1
 7.099609375 4.2001953125 l 1
 7.099609375 7.599609375 l 2
 7.099609375 8.099609375 7.2998046875 8.599609375 7.7001953125 8.7998046875 c 2
 13.099609375 12.5 l 1
 13.099609375 18 l 1
 3 18 l 1
 3 11.900390625 l 1
 1 11.900390625 l 1
 1 18.5 l 2
 1 19.2998046875 1.7001953125 20 2.5 20 c 2
 13.7001953125 20 l 2
 14.5 20 15.2001953125 19.2998046875 15.2001953125 18.5 c 2
 15.2001953125 12.2998046875 l 2
 15.2001953125 11.7998046875 15 11.2998046875 14.599609375 11.099609375 c 2
 9.2001953125 7.400390625 l 1
 9.2001953125 4.2001953125 l 1
 9.099609375 4.2001953125 l 1
EndSplineSet
EndChar

StartChar: A
Encoding: 65 65 14
Width: 18
Flags: HW
LayerCount: 2
Fore
SplineSet
15.5 20 m 2
 16.2998046875 20 17 19.2998046875 17 18.5 c 2
 17 0 l 1
 15 0 l 1
 15 9 l 1
 3 9 l 1
 3 0 l 1
 1 0 l 1
 1 18.5 l 2
 1 19.2998046875 1.7001953125 20 2.5 20 c 2
 15.5 20 l 2
3 11 m 1
 15 11 l 1
 15 18 l 1
 3 18 l 1
 3 11 l 1
EndSplineSet
EndChar

StartChar: a
Encoding: 97 97 15
Width: 14
Flags: HW
LayerCount: 2
Fore
SplineSet
11.599609375 14 m 2
 12.400390625 14 13.099609375 13.2998046875 13.099609375 12.5 c 2
 13.099609375 0 l 1
 11.099609375 0 l 1
 11.099609375 0.400390625 l 1
 10.599609375 0.099609375 10.099609375 0 9.5 0 c 2
 2.5 0 l 2
 1.7001953125 0 1 0.7001953125 1 1.5 c 2
 1 6.5 l 2
 1 7.2998046875 1.7001953125 8 2.5 8 c 2
 11.099609375 8 l 1
 11.099609375 12 l 1
 1 12 l 1
 1 14 l 1
 11.599609375 14 l 2
11 3.5 m 2
 11 6 l 1
 3 6 l 1
 3 2 l 1
 9.5 2 l 2
 10.2998046875 2 11 2.7001953125 11 3.5 c 2
EndSplineSet
EndChar

StartChar: B
Encoding: 66 66 16
Width: 16
Flags: HW
LayerCount: 2
Fore
SplineSet
15.2998046875 18 m 2
 15.2998046875 11.5 l 2
 15.2998046875 10.900390625 15.099609375 10.400390625 14.7998046875 10 c 0
 15.099609375 9.599609375 15.2998046875 9.099609375 15.2998046875 8.5 c 2
 15.2998046875 2 l 2
 15.2998046875 0.900390625 14.400390625 0 13.2998046875 0 c 2
 1 0 l 1
 1 9 l 1
 1 11 l 1
 1 20 l 1
 13.2998046875 20 l 2
 14.400390625 20 15.2998046875 19.099609375 15.2998046875 18 c 2
3 18 m 1
 3 11 l 1
 12.7998046875 11 l 2
 13 11 13.2998046875 11.2001953125 13.2998046875 11.5 c 2
 13.2998046875 18 l 1
 3 18 l 1
13.2998046875 2 m 1
 13.2998046875 8.5 l 2
 13.2998046875 8.7998046875 13.099609375 9 12.7998046875 9 c 2
 3 9 l 1
 3 2 l 1
 13.2998046875 2 l 1
EndSplineSet
EndChar

StartChar: b
Encoding: 98 98 17
Width: 14
Flags: HW
LayerCount: 2
Fore
SplineSet
11.400390625 14 m 2
 12.2001953125 14 12.900390625 13.2998046875 12.900390625 12.5 c 2
 12.900390625 1.5 l 2
 12.900390625 0.7001953125 12.2001953125 0 11.400390625 0 c 2
 4.5 0 l 2
 4 0 3.5 0.099609375 3 0.400390625 c 1
 3 0 l 1
 1 0 l 1
 1 3.5 l 1
 1 10.5 l 1
 1 20 l 1
 3 20 l 1
 3 13.599609375 l 1
 3.5 13.900390625 4 14 4.5 14 c 2
 11.400390625 14 l 2
10.900390625 2 m 1
 10.900390625 12 l 1
 4.5 12 l 2
 3.7001953125 12 3 11.2998046875 3 10.5 c 2
 3 3.5 l 2
 3 2.7001953125 3.7001953125 2 4.5 2 c 2
 10.900390625 2 l 1
EndSplineSet
EndChar

StartChar: C
Encoding: 67 67 18
Width: 16
Flags: HW
LayerCount: 2
Fore
SplineSet
15 0 m 1
 2.5 0 l 2
 1.7001953125 0 1 0.7001953125 1 1.5 c 2
 1 18.5 l 2
 1 19.2998046875 1.7001953125 20 2.5 20 c 2
 15 20 l 1
 15 18 l 1
 3 18 l 1
 3 2 l 1
 15 2 l 1
 15 0 l 1
EndSplineSet
EndChar

StartChar: c
Encoding: 99 99 19
Width: 14
Flags: HW
LayerCount: 2
Fore
SplineSet
12.900390625 0 m 1
 2.5 0 l 2
 1.7001953125 0 1 0.7001953125 1 1.5 c 2
 1 12.5 l 2
 1 13.2998046875 1.7001953125 14 2.5 14 c 2
 12.900390625 14 l 1
 12.900390625 12 l 1
 3 12 l 1
 3 2 l 1
 12.900390625 2 l 1
 12.900390625 0 l 1
EndSplineSet
EndChar

StartChar: D
Encoding: 68 68 20
Width: 16
Flags: HW
LayerCount: 2
Fore
SplineSet
13.400390625 0 m 2
 1 0 l 1
 1 20 l 1
 9.7001953125 20 l 2
 10.099609375 20 10.5 19.7998046875 10.7998046875 19.5 c 2
 14.599609375 15.2998046875 l 2
 14.7998046875 15 15 14.7001953125 15 14.2998046875 c 2
 15 1.5 l 2
 14.900390625 0.7001953125 14.2998046875 0 13.400390625 0 c 2
3 2 m 1
 12.900390625 2 l 1
 12.900390625 14.099609375 l 1
 9.5 18 l 1
 3 18 l 1
 3 2 l 1
EndSplineSet
EndChar

StartChar: d
Encoding: 100 100 21
Width: 14
Flags: HW
LayerCount: 2
Fore
SplineSet
10.900390625 20 m 1
 12.900390625 20 l 1
 12.900390625 10.5 l 1
 12.900390625 3.5 l 1
 12.900390625 0 l 1
 10.900390625 0 l 1
 10.900390625 0.400390625 l 1
 10.400390625 0.099609375 9.900390625 0 9.400390625 0 c 2
 2.5 0 l 2
 1.7001953125 0 1 0.7001953125 1 1.5 c 2
 1 12.5 l 2
 1 13.2998046875 1.7001953125 14 2.5 14 c 2
 9.400390625 14 l 2
 10 14 10.5 13.900390625 10.900390625 13.599609375 c 1
 10.900390625 20 l 1
9.400390625 2 m 2
 10.2001953125 2 10.900390625 2.7001953125 10.900390625 3.5 c 2
 10.900390625 10.5 l 2
 10.900390625 11.2998046875 10.2001953125 12 9.400390625 12 c 2
 3 12 l 1
 3 2 l 1
 9.400390625 2 l 2
EndSplineSet
EndChar

StartChar: E
Encoding: 69 69 22
Width: 16
Flags: HW
LayerCount: 2
Fore
SplineSet
15 18 m 1
 3 18 l 1
 3 11 l 1
 14 11 l 1
 14 9 l 1
 3 9 l 1
 3 2 l 1
 15 2 l 1
 15 0 l 1
 2.5 0 l 2
 1.7001953125 0 1 0.7001953125 1 1.5 c 2
 1 20 l 1
 15 20 l 1
 15 18 l 1
EndSplineSet
EndChar

StartChar: e
Encoding: 101 101 23
Width: 14
Flags: HW
LayerCount: 2
Fore
SplineSet
12.7998046875 6 m 1
 3 6 l 1
 3 2 l 1
 12.7998046875 2 l 1
 12.7998046875 0 l 1
 2.5 0 l 2
 1.7001953125 0 1 0.7001953125 1 1.5 c 2
 1 12.5 l 2
 1 13.2998046875 1.7001953125 14 2.5 14 c 2
 11.2998046875 14 l 2
 12.099609375 14 12.7998046875 13.2998046875 12.7998046875 12.5 c 2
 12.7998046875 6 l 1
3 12 m 1
 3 8 l 1
 10.7998046875 8 l 1
 10.7998046875 12 l 1
 3 12 l 1
EndSplineSet
EndChar

StartChar: F
Encoding: 70 70 24
Width: 16
Flags: HW
LayerCount: 2
Fore
SplineSet
14.7998046875 18 m 1
 3 18 l 1
 3 11 l 1
 14.099609375 11 l 1
 14.099609375 9 l 1
 3 9 l 1
 3 0 l 1
 1 0 l 1
 1 18.5 l 2
 1 19.2998046875 1.7001953125 20 2.5 20 c 2
 14.7998046875 20 l 1
 14.7998046875 18 l 1
EndSplineSet
EndChar

StartChar: f
Encoding: 102 102 25
Width: 10
Flags: HW
LayerCount: 2
Fore
SplineSet
9.099609375 14 m 1
 9.099609375 12 l 1
 5.099609375 12 l 1
 5.099609375 0 l 1
 3.099609375 0 l 1
 3.099609375 12 l 1
 1 12 l 1
 1 14 l 1
 3.099609375 14 l 1
 3.099609375 18.5 l 2
 3.099609375 19.2998046875 3.7998046875 20 4.599609375 20 c 2
 9 20 l 1
 9 18 l 1
 5.099609375 18 l 1
 5.099609375 14 l 1
 9.099609375 14 l 1
EndSplineSet
EndChar

StartChar: Q
Encoding: 81 81 26
Width: 18
Flags: HW
LayerCount: 2
Fore
SplineSet
14.400390625 2 m 1
 17 2 l 1
 17 0 l 1
 14.2001953125 0 l 2
 13.7998046875 0 13.400390625 0.099609375 13.099609375 0.400390625 c 2
 12.5 1 l 1
 11.900390625 0.400390625 l 2
 11.599609375 0.2001953125 11.2001953125 0 10.7998046875 0 c 2
 2.5 0 l 2
 1.7001953125 0 1 0.7001953125 1 1.5 c 2
 1 18.5 l 2
 1 19.2998046875 1.7001953125 20 2.5 20 c 2
 13.5 20 l 2
 14.2998046875 20 15 19.2998046875 14.900390625 18.5 c 2
 14.900390625 4.2001953125 l 2
 14.900390625 3.7998046875 14.7998046875 3.400390625 14.5 3.099609375 c 2
 13.900390625 2.5 l 1
 14.400390625 2 l 1
10.599609375 2 m 1
 11.099609375 2.5 l 1
 7.599609375 6 l 1
 9 7.400390625 l 1
 12.5 3.900390625 l 1
 13 4.400390625 l 1
 13 18 l 1
 3 18 l 1
 3 2 l 1
 10.599609375 2 l 1
EndSplineSet
EndChar

StartChar: ampersand
Encoding: 38 38 27
Width: 18
Flags: HW
HStem: 0.0996094 2<14.7002 17.2002> 0.299805 1.90039<4.22107 8.15099> 18 2<4.59961 13.2002>
VStem: 1 2<3.18523 8.0191> 2.2002 2<15.0996 17.5996>
LayerCount: 2
Fore
SplineSet
14.7001953125 2 m 1x68
 14.7001953125 2.099609375 l 1
 17.2001953125 2.099609375 l 1
 17.2001953125 0.099609375 l 1
 14.400390625 0.099609375 l 2xa8
 13.900390625 0.099609375 13.5 0.2998046875 13.2001953125 0.7001953125 c 2
 11.099609375 3.2998046875 l 1
 10 1.900390625 l 2
 9.2001953125 0.900390625 7.900390625 0.2998046875 6.599609375 0.2998046875 c 2
 5.400390625 0.2998046875 l 2
 4.7998046875 0.2998046875 4.2001953125 0.5 3.7001953125 0.7998046875 c 2
 2.400390625 1.599609375 l 2
 1.5 2.2001953125 1 3.099609375 1 4.2001953125 c 2
 1 7 l 2x70
 1 7.900390625 1.5 8.900390625 2.2998046875 9.400390625 c 2
 4.7001953125 11.2998046875 l 1
 2.5 14 l 2
 2.2998046875 14.2001953125 2.2001953125 14.599609375 2.2001953125 14.900390625 c 2
 2.2001953125 17.7998046875 l 2
 2.2001953125 18.2001953125 2.2998046875 18.599609375 2.599609375 18.900390625 c 2
 3.2998046875 19.599609375 l 2
 3.599609375 19.7998046875 4 20 4.400390625 20 c 2
 13.2001953125 20 l 1
 13.2001953125 18 l 1
 4.599609375 18 l 1
 4.2001953125 17.599609375 l 1
 4.2001953125 15.099609375 l 1
 6.2998046875 12.5 l 1
 6.900390625 11.7001953125 l 1
 11.2998046875 6.400390625 l 1
 14.599609375 10.400390625 l 1
 16.099609375 9.099609375 l 1
 12.5 4.7998046875 l 1
 14.7001953125 2 l 1x68
8.5 3.099609375 m 2
 9.7998046875 4.900390625 l 1
 5.900390625 9.7998046875 l 1
 3.400390625 7.900390625 l 2
 3.2001953125 7.7001953125 3 7.2998046875 3 7 c 2
 3 4.2001953125 l 2
 3 3.7998046875 3.2001953125 3.400390625 3.5 3.2001953125 c 2
 4.7998046875 2.400390625 l 2
 5 2.2998046875 5.2001953125 2.2001953125 5.400390625 2.2001953125 c 2
 6.599609375 2.2001953125 l 2x70
 7.2998046875 2.2001953125 8 2.5 8.5 3.099609375 c 2
EndSplineSet
EndChar

StartChar: period
Encoding: 46 46 28
Width: 6
Flags: HW
LayerCount: 2
Fore
SplineSet
1 0 m 1
 1 4 l 1
 5 4 l 1
 5 0 l 1
 1 0 l 1
EndSplineSet
EndChar

StartChar: G
Encoding: 71 71 29
Width: 16
Flags: HW
LayerCount: 2
Fore
SplineSet
13.5 0 m 2
 2.5 0 l 2
 1.7001953125 0 1 0.7001953125 1 1.5 c 2
 1 18.5 l 2
 1 19.2998046875 1.7001953125 20 2.5 20 c 2
 15 20 l 1
 15 18 l 1
 3 18 l 1
 3 2 l 1
 13 2 l 1
 13 9 l 1
 7 9 l 1
 7 11 l 1
 15 11 l 1
 15 1.5 l 2
 15 0.7001953125 14.2998046875 0 13.5 0 c 2
EndSplineSet
EndChar

StartChar: H
Encoding: 72 72 30
Width: 16
Flags: HW
LayerCount: 2
Fore
SplineSet
13 20 m 1
 15 20 l 1
 15 0 l 1
 13 0 l 1
 13 9 l 1
 3 9 l 1
 3 0 l 1
 1 0 l 1
 1 20 l 1
 3 20 l 1
 3 11 l 1
 13 11 l 1
 13 20 l 1
EndSplineSet
EndChar

StartChar: I
Encoding: 73 73 31
Width: 8
Flags: HW
LayerCount: 2
Fore
SplineSet
7 18 m 1
 5 18 l 1
 5 2 l 1
 7 2 l 1
 7 0 l 1
 1 0 l 1
 1 2 l 1
 3 2 l 1
 3 18 l 1
 1 18 l 1
 1 20 l 1
 7 20 l 1
 7 18 l 1
EndSplineSet
EndChar

StartChar: comma
Encoding: 44 44 32
Width: 6
VWidth: 24
Flags: HW
LayerCount: 2
Fore
SplineSet
5 4 m 1
 5 0 l 1
 4.099609375 0 l 1
 3.599609375 -1.2998046875 l 2
 3.400390625 -1.7001953125 3 -2 2.599609375 -2 c 2
 1 -2 l 1
 1 -1 l 1
 2.599609375 -1 l 1
 3 0 l 1
 1 0 l 1
 1 4 l 1
 5 4 l 1
EndSplineSet
EndChar

StartChar: L
Encoding: 76 76 33
Width: 16
Flags: HW
LayerCount: 2
Fore
SplineSet
14.900390625 0 m 1
 2.5 0 l 2
 1.7001953125 0 1 0.7001953125 1 1.5 c 2
 1 20 l 1
 3 20 l 1
 3 2 l 1
 14.900390625 2 l 1
 14.900390625 0 l 1
EndSplineSet
EndChar

StartChar: U
Encoding: 85 85 34
Width: 16
Flags: HW
LayerCount: 2
Fore
SplineSet
13.5 0 m 2
 2.5 0 l 2
 1.7001953125 0 1 0.7001953125 1 1.5 c 2
 1 20 l 1
 3 20 l 1
 3 2 l 1
 13 2 l 1
 13 20 l 1
 15 20 l 1
 15 1.5 l 2
 15 0.7001953125 14.2998046875 0 13.5 0 c 2
EndSplineSet
EndChar

StartChar: M
Encoding: 77 77 35
Width: 18
Flags: HW
LayerCount: 2
Fore
SplineSet
3 16.400390625 m 1
 3 0 l 1
 1 0 l 1
 1 20 l 1
 3.900390625 20 l 1
 9.2001953125 4.2001953125 l 1
 14.5 20 l 1
 17.2001953125 20 l 1
 17.2001953125 0 l 1
 15.2001953125 0 l 1
 15.2001953125 15.7998046875 l 1
 9.900390625 0 l 1
 8.5 0 l 1
 3 16.400390625 l 1
EndSplineSet
EndChar

StartChar: N
Encoding: 78 78 36
Width: 16
Flags: HW
LayerCount: 2
Fore
SplineSet
15 0 m 1
 12.400390625 0 l 1
 3 16.900390625 l 1
 3 0 l 1
 1 0 l 1
 1 20 l 1
 3.599609375 20 l 1
 13 3.099609375 l 1
 13 20 l 1
 15 20 l 1
 15 0 l 1
EndSplineSet
EndChar

StartChar: R
Encoding: 82 82 37
Width: 16
Flags: HW
LayerCount: 2
Fore
SplineSet
15 11.7001953125 m 2
 15 10.7001953125 14.599609375 9.7001953125 13.7998046875 9.099609375 c 1
 14.5 8.5 15 7.5 15 6.5 c 2
 15 0 l 1
 13 0 l 1
 13 6.5 l 2
 13 7.2998046875 12.2998046875 8 11.5 8 c 2
 3 8 l 1
 3 0 l 1
 1 0 l 1
 1 20 l 1
 13.5 20 l 2
 14.2998046875 20 15 19.2998046875 15 18.5 c 2
 15 11.7001953125 l 2
3 18 m 1
 3 10.2001953125 l 1
 11.5 10.2001953125 l 2
 12.2998046875 10.2001953125 13 10.900390625 13 11.7001953125 c 2
 13 18 l 1
 3 18 l 1
EndSplineSet
EndChar

StartChar: J
Encoding: 74 74 38
Width: 16
Flags: HW
LayerCount: 2
Fore
SplineSet
13.5 0 m 2
 2.5 0 l 2
 1.7001953125 0 1 0.7001953125 1 1.5 c 2
 1 8.599609375 l 1
 3 8.599609375 l 1
 3 2 l 1
 13 2 l 1
 13 20 l 1
 15 20 l 1
 15 1.5 l 2
 15 0.7001953125 14.2998046875 0 13.5 0 c 2
EndSplineSet
EndChar

StartChar: K
Encoding: 75 75 39
Width: 16
Flags: HW
LayerCount: 2
Fore
SplineSet
5.599609375 10.099609375 m 1
 13.7001953125 2 l 1
 15.099609375 2 l 1
 15.099609375 0.599609375 l 1
 15.099609375 0 l 1
 12.900390625 0 l 1
 12.2998046875 0.599609375 l 1
 3.900390625 9 l 1
 3 9 l 1
 3 0 l 1
 1 0 l 1
 1 9 l 1
 1 11 l 1
 1 20 l 1
 3 20 l 1
 3 11 l 1
 3.599609375 11 l 1
 12.599609375 20 l 1
 15.400390625 20 l 1
 5.599609375 10.099609375 l 1
EndSplineSet
EndChar

StartChar: O
Encoding: 79 79 40
Width: 16
Flags: HW
LayerCount: 2
Fore
SplineSet
13.5 0 m 2
 2.5 0 l 2
 1.7001953125 0 1 0.7001953125 1 1.5 c 2
 1 18.5 l 2
 1 19.2998046875 1.7001953125 20 2.5 20 c 2
 13.5 20 l 2
 14.2998046875 20 15 19.2998046875 15 18.5 c 2
 15 1.5 l 2
 15 0.7001953125 14.2998046875 0 13.5 0 c 2
3 2 m 1
 13 2 l 1
 13 18 l 1
 3 18 l 1
 3 2 l 1
13.5 18 m 1
 13.5 18 l 1
 13.5 18 l 1
EndSplineSet
EndChar

StartChar: P
Encoding: 80 80 41
Width: 16
Flags: HW
LayerCount: 2
Fore
SplineSet
3 0 m 1
 1 0 l 1
 1 20 l 1
 13.5 20 l 2
 14.2998046875 20 15 19.2998046875 15 18.5 c 2
 15 9.7001953125 l 2
 15 8.900390625 14.2998046875 8.2001953125 13.5 8.2001953125 c 2
 3 8.2001953125 l 1
 3 0 l 1
3 10.2001953125 m 1
 13 10.2001953125 l 1
 13 18 l 1
 3 18 l 1
 3 10.2001953125 l 1
EndSplineSet
EndChar

StartChar: S
Encoding: 83 83 42
Width: 16
Flags: HW
LayerCount: 2
Fore
SplineSet
13.5 0 m 2
 1 0 l 1
 1 2 l 1
 13 2 l 1
 13 9 l 1
 2.5 9 l 2
 1.7001953125 9 1 9.7001953125 1 10.5 c 2
 1 18.5 l 2
 1 19.2998046875 1.7001953125 20 2.5 20 c 2
 15 20 l 1
 15 18 l 1
 3 18 l 1
 3 11 l 1
 13.5 11 l 2
 14.2998046875 11 15 10.2998046875 15 9.5 c 2
 15 1.5 l 2
 15 0.7001953125 14.2998046875 0 13.5 0 c 2
EndSplineSet
EndChar

StartChar: T
Encoding: 84 84 43
Width: 16
Flags: HW
LayerCount: 2
Fore
SplineSet
1 20 m 1
 15 20 l 1
 15 18 l 1
 9 18 l 1
 9 0 l 1
 7 0 l 1
 7 18 l 1
 1 18 l 1
 1 20 l 1
EndSplineSet
EndChar

StartChar: V
Encoding: 86 86 44
Width: 16
Flags: HW
LayerCount: 2
Fore
SplineSet
13 20 m 1
 15.099609375 20 l 1
 10 0.400390625 l 2
 9.900390625 0.2001953125 9.7001953125 0 9.5 0 c 2
 7.7001953125 0 l 2
 7.5 0 7.2998046875 0.099609375 7.2001953125 0.2998046875 c 2
 1 20 l 1
 3.099609375 20 l 1
 8.5 2.900390625 l 1
 13 20 l 1
EndSplineSet
EndChar

StartChar: W
Encoding: 87 87 45
Width: 20
Flags: HW
LayerCount: 2
Fore
SplineSet
6.900390625 0.400390625 m 2
 6.7998046875 0.2001953125 6.599609375 0 6.400390625 0 c 2
 5.599609375 0 l 2
 5.400390625 0 5.099609375 0.2001953125 5.099609375 0.400390625 c 2
 1 19.7998046875 l 1
 2.099609375 20 l 1
 3 20 l 1
 6 5.7998046875 l 1
 9 20 l 1
 10.7001953125 20 l 1
 13.7001953125 5.7001953125 l 1
 16.900390625 20 l 1
 17.7998046875 20 l 1
 19 19.7998046875 l 1
 14.7001953125 0.400390625 l 2
 14.599609375 0.2001953125 14.400390625 0 14.2001953125 0 c 2
 13.400390625 0 l 2
 13.2001953125 0 12.900390625 0.2001953125 12.900390625 0.400390625 c 2
 9.900390625 14.2998046875 l 1
 6.900390625 0.400390625 l 2
EndSplineSet
EndChar

StartChar: X
Encoding: 88 88 46
Width: 16
Flags: HW
LayerCount: 2
Fore
SplineSet
15.2998046875 20 m 1
 9.2998046875 10 l 1
 15.2998046875 0 l 1
 13 0 l 1
 8.2001953125 8.099609375 l 1
 3.2998046875 0 l 1
 1 0 l 1
 7 10 l 1
 1 20 l 1
 3.2998046875 20 l 1
 8.2001953125 11.900390625 l 1
 13 20 l 1
 15.2998046875 20 l 1
EndSplineSet
EndChar

StartChar: Y
Encoding: 89 89 47
Width: 16
Flags: HW
LayerCount: 2
Fore
SplineSet
13 20 m 1
 15.2998046875 20 l 1
 9.2001953125 9.7001953125 l 1
 9.2001953125 0 l 1
 7.2001953125 0 l 1
 7.2001953125 9.7001953125 l 1
 1 20 l 1
 3.2998046875 20 l 1
 8.2001953125 11.900390625 l 1
 13 20 l 1
EndSplineSet
EndChar

StartChar: Z
Encoding: 90 90 48
Width: 16
Flags: HW
LayerCount: 2
Fore
SplineSet
15 20 m 1
 15 18.7001953125 l 1
 4 2 l 1
 15 2 l 1
 15 0 l 1
 1 0 l 1
 1 1.099609375 l 1
 12.099609375 18 l 1
 1.2001953125 18 l 1
 1.2001953125 20 l 1
 15 20 l 1
EndSplineSet
EndChar

StartChar: i
Encoding: 105 105 50
Width: 4
Flags: HW
LayerCount: 2
Fore
SplineSet
1 0 m 1
 1 14 l 1
 3 14 l 1
 3 0 l 1
 1 0 l 1
1 17.5 m 1
 1 20 l 1
 3 20 l 1
 3 17.5 l 1
 1 17.5 l 1
EndSplineSet
EndChar

StartChar: h
Encoding: 104 104 51
Width: 14
Flags: HW
LayerCount: 2
Fore
SplineSet
11.400390625 14 m 2
 12.2001953125 14 12.900390625 13.2998046875 12.900390625 12.5 c 2
 12.900390625 0 l 1
 10.900390625 0 l 1
 10.900390625 12 l 1
 3 12 l 1
 3 0 l 1
 1 0 l 1
 1 12 l 1
 1 14 l 1
 1 20 l 1
 3 20 l 1
 3 14 l 1
 11.400390625 14 l 2
EndSplineSet
EndChar

StartChar: g
Encoding: 103 103 52
Width: 14
Flags: HW
LayerCount: 2
Fore
SplineSet
11 14 m 1
 13 14 l 1
 13 10.5 l 1
 13 4.599609375 l 1
 13 -2.5 l 2
 13 -3.2998046875 12.2998046875 -4 11.5 -4 c 2
 1.900390625 -4 l 1
 1.900390625 -2 l 1
 11 -2 l 1
 11 1.5 l 1
 10.5 1.2001953125 10 1.099609375 9.5 1.099609375 c 2
 2.5 1.099609375 l 2
 1.7001953125 1.099609375 1 1.7998046875 1 2.599609375 c 2
 1 12.5 l 2
 1 13.2998046875 1.7001953125 14 2.5 14 c 2
 9.5 14 l 2
 10.099609375 14 10.599609375 13.900390625 11 13.599609375 c 1
 11 14 l 1
9.5 3.099609375 m 2
 10.400390625 3.099609375 11 3.7998046875 11 4.599609375 c 2
 11 10.5 l 2
 11 11.2998046875 10.400390625 12 9.5 12 c 2
 3 12 l 1
 3 3.099609375 l 1
 9.5 3.099609375 l 2
EndSplineSet
EndChar

StartChar: j
Encoding: 106 106 53
Width: 10
Flags: HW
LayerCount: 2
Fore
SplineSet
7.5 -3.900390625 m 2
 1 -3.900390625 l 1
 1 -1.900390625 l 1
 7 -1.900390625 l 1
 7 14 l 1
 9 14 l 1
 9 -2.400390625 l 2
 9 -3.2001953125 8.2998046875 -3.900390625 7.5 -3.900390625 c 2
6.7998046875 17.5 m 1
 6.7998046875 20 l 1
 8.7998046875 20 l 1
 8.7998046875 17.5 l 1
 6.7998046875 17.5 l 1
EndSplineSet
EndChar

StartChar: plus
Encoding: 43 43 54
Width: 16
Flags: HW
LayerCount: 2
Fore
SplineSet
15 11.2001953125 m 5
 15 9.2001953125 l 5
 9 9.2001953125 l 5
 9 3.2998046875 l 5
 7 3.2998046875 l 5
 7 9.2001953125 l 5
 1 9.2001953125 l 5
 1 11.2001953125 l 5
 7 11.2001953125 l 5
 7 17 l 5
 9 17 l 5
 9 11.2001953125 l 5
 15 11.2001953125 l 5
EndSplineSet
EndChar

StartChar: colon
Encoding: 58 58 55
Width: 6
Flags: HW
LayerCount: 2
Fore
SplineSet
1 3 m 5
 1 7 l 5
 5 7 l 5
 5 3 l 5
 1 3 l 5
1 13 m 5
 1 17 l 5
 5 17 l 5
 5 13 l 5
 1 13 l 5
EndSplineSet
EndChar

StartChar: semicolon
Encoding: 59 59 56
Width: 6
Flags: HW
LayerCount: 2
Fore
SplineSet
1 3 m 1
 1 7 l 1
 5 7 l 1
 5 3 l 1
 4.099609375 3 l 1
 3.599609375 1.7001953125 l 2
 3.400390625 1.2998046875 3 1 2.599609375 1 c 2
 1 1 l 1
 1 2 l 1
 2.599609375 2 l 1
 3 3 l 1
 1 3 l 1
1 13 m 1
 1 17 l 1
 5 17 l 1
 5 13 l 1
 1 13 l 1
EndSplineSet
EndChar

StartChar: hyphen
Encoding: 45 45 57
Width: 14
Flags: HW
LayerCount: 2
Fore
SplineSet
1 9 m 5
 1 11 l 5
 12.900390625 11 l 5
 12.900390625 9 l 5
 1 9 l 5
EndSplineSet
EndChar

StartChar: quotesingle
Encoding: 39 39 58
Width: 6
Flags: HW
LayerCount: 2
Fore
SplineSet
5 20 m 1
 5 16 l 1
 4.099609375 16 l 1
 3.599609375 14.7001953125 l 2
 3.400390625 14.2998046875 3 14 2.599609375 14 c 2
 1 14 l 1
 1 15 l 1
 2.599609375 15 l 1
 3 16 l 1
 1 16 l 1
 1 20 l 1
 5 20 l 1
EndSplineSet
EndChar

StartChar: quotedbl
Encoding: 34 34 59
Width: 10
Flags: HW
LayerCount: 2
Fore
SplineSet
5 16 m 1
 4.099609375 16 l 1
 3.599609375 14.7001953125 l 2
 3.400390625 14.2998046875 3 14 2.599609375 14 c 2
 1 14 l 1
 1 15 l 1
 2.599609375 15 l 1
 3 16 l 1
 1 16 l 1
 1 20 l 1
 5 20 l 1
 5 16 l 1
9 20 m 1
 9 16 l 1
 8.099609375 16 l 1
 7.599609375 14.7001953125 l 2
 7.400390625 14.2998046875 7 14 6.599609375 14 c 2
 5 14 l 1
 5 15 l 1
 6.599609375 15 l 1
 7 16 l 1
 6 16 l 1
 6 20 l 1
 9 20 l 1
EndSplineSet
EndChar

StartChar: r
Encoding: 114 114 60
Width: 12
Flags: HW
LayerCount: 2
Fore
SplineSet
9.599609375 14 m 2
 10.400390625 14 11.099609375 13.2998046875 11.099609375 12.5 c 2
 11.099609375 9 l 1
 9.099609375 9 l 1
 9.099609375 12 l 1
 5 12 l 2
 3.900390625 12 3 11.099609375 3 10 c 2
 3 9 l 1
 3 0 l 1
 1 0 l 1
 1 9 l 1
 1 10 l 1
 1 14 l 1
 3 14 l 1
 3 13.5 l 1
 3.599609375 13.7998046875 4.2001953125 14 5 14 c 2
 9.599609375 14 l 2
EndSplineSet
EndChar

StartChar: u
Encoding: 117 117 61
Width: 14
Flags: HW
LayerCount: 2
Fore
SplineSet
11 14 m 1
 13 14 l 1
 13 3.5 l 1
 13 0 l 1
 11 0 l 1
 11 0.400390625 l 1
 10.5 0.099609375 10 0 9.5 0 c 2
 2.5 0 l 2
 1.7001953125 0 1 0.7001953125 1 1.5 c 2
 1 14 l 1
 3 14 l 1
 3 2 l 1
 9.5 2 l 2
 10.2998046875 2 11 2.7001953125 11 3.5 c 2
 11 14 l 1
EndSplineSet
EndChar

StartChar: y
Encoding: 121 121 62
Width: 15
Flags: HW
LayerCount: 2
Fore
SplineSet
12.2998046875 14 m 1
 14.400390625 14 l 1
 8.7001953125 -1.5 l 1
 8.2998046875 -2.7001953125 l 2
 8.2001953125 -3 8 -3.2998046875 7.7001953125 -3.5 c 0
 7.400390625 -3.7998046875 7 -4 6.5 -4 c 2
 1.7001953125 -4 l 1
 1.7001953125 -2 l 1
 6.5 -2 l 1
 6.599609375 -1.5 l 1
 1 14 l 1
 3.099609375 14 l 1
 7.2998046875 2.7001953125 l 2
 7.400390625 2.2998046875 8 2.2998046875 8.2001953125 2.7001953125 c 2
 12.2998046875 14 l 1
EndSplineSet
EndChar

StartChar: slash
Encoding: 47 47 63
Width: 14
Flags: HW
LayerCount: 2
Fore
SplineSet
3.2001953125 0 m 1
 1 0 l 1
 10.7998046875 20 l 1
 13.099609375 20 l 1
 3.2001953125 0 l 1
EndSplineSet
EndChar

StartChar: o
Encoding: 111 111 64
Width: 14
Flags: HW
LayerCount: 2
Fore
SplineSet
11.5 0 m 2
 2.5 0 l 2
 1.7001953125 0 1 0.7001953125 1 1.5 c 2
 1 12.5 l 2
 1 13.2998046875 1.7001953125 14 2.5 14 c 2
 11.5 14 l 2
 12.2998046875 14 13 13.2998046875 13 12.5 c 2
 13 1.5 l 2
 13 0.7001953125 12.2998046875 0 11.5 0 c 2
3 2 m 1
 11 2 l 1
 11 12 l 1
 3 12 l 1
 3 2 l 1
11.5 12 m 1
 11.5 12 l 1
 11.5 12 l 1
EndSplineSet
EndChar

StartChar: t
Encoding: 116 116 65
Width: 14
Flags: HW
LayerCount: 2
Fore
SplineSet
13.2001953125 12 m 1
 7.2001953125 12 l 1
 7.2001953125 2 l 1
 13.099609375 2 l 1
 13.099609375 0 l 1
 6.7001953125 0 l 2
 5.900390625 0 5.2001953125 0.7001953125 5.2001953125 1.5 c 2
 5.2001953125 12 l 1
 1 12 l 1
 1 14 l 1
 5.2001953125 14 l 1
 5.2001953125 20 l 1
 7.2001953125 20 l 1
 7.2001953125 14 l 1
 13.2001953125 14 l 1
 13.2001953125 12 l 1
EndSplineSet
EndChar

StartChar: s
Encoding: 115 115 66
Width: 13
Flags: HW
LayerCount: 2
Fore
SplineSet
11.099609375 0 m 2
 1 0 l 1
 1 2 l 1
 10.599609375 2 l 1
 10.599609375 6 l 1
 2.5 6 l 2
 1.7001953125 6 1 6.7001953125 1 7.5 c 2
 1 12.5 l 2
 1 13.2998046875 1.7001953125 14 2.5 14 c 2
 12.599609375 14 l 1
 12.599609375 12 l 1
 3 12 l 1
 3 8 l 1
 11.099609375 8 l 2
 11.900390625 8 12.599609375 7.2998046875 12.599609375 6.5 c 2
 12.599609375 1.5 l 2
 12.599609375 0.7001953125 11.900390625 0 11.099609375 0 c 2
EndSplineSet
EndChar

StartChar: n
Encoding: 110 110 67
Width: 14
Flags: HW
LayerCount: 2
Fore
SplineSet
11.5 14 m 2
 12.2998046875 14 13 13.2998046875 13 12.5 c 2
 13 0 l 1
 11 0 l 1
 11 12 l 1
 4.5 12 l 2
 3.7001953125 12 3 11.2998046875 3 10.5 c 2
 3 0 l 1
 1 0 l 1
 1 10.5 l 1
 1 14 l 1
 3 14 l 1
 3 13.599609375 l 1
 3.5 13.900390625 4 14 4.5 14 c 2
 11.5 14 l 2
EndSplineSet
EndChar

StartChar: k
Encoding: 107 107 68
Width: 12
Flags: HW
LayerCount: 2
Fore
SplineSet
8.5 0 m 1
 3.7998046875 6 l 1
 3 6 l 1
 3 0 l 1
 1 0 l 1
 1 6 l 1
 1 8 l 1
 1 20 l 1
 3 20 l 1
 3 8 l 1
 3.7998046875 8 l 1
 8.400390625 14 l 1
 10.900390625 14 l 1
 5.5 7 l 1
 11 0 l 1
 8.5 0 l 1
EndSplineSet
EndChar

StartChar: l
Encoding: 108 108 69
Width: 4
Flags: HW
LayerCount: 2
Fore
SplineSet
1 0 m 1
 1 20 l 1
 3 20 l 1
 3 0 l 1
 1 0 l 1
EndSplineSet
EndChar

StartChar: m
Encoding: 109 109 70
Width: 16
Flags: HW
LayerCount: 2
Fore
SplineSet
13.599609375 14 m 6
 14.400390625 14 15.099609375 13.2998046875 15.099609375 12.5 c 6
 15.099609375 0 l 5
 13.099609375 0 l 5
 13.099609375 12 l 5
 10 12 l 6
 9.5 12 9.2001953125 11.7001953125 9.099609375 11.2998046875 c 4
 9.099609375 11.2001953125 9.099609375 11.099609375 9.099609375 11 c 6
 9.099609375 0 l 5
 9 0 l 5
 7.099609375 0 l 5
 7 0 l 5
 7 11 l 6
 7 11.099609375 7 11.2001953125 7 11.2998046875 c 4
 6.900390625 11.7001953125 6.5 12 6.099609375 12 c 6
 4.5 12 l 6
 3.7001953125 12 3 11.2998046875 3 10.5 c 6
 3 0 l 5
 1 0 l 5
 1 10.5 l 5
 1 14 l 5
 3 14 l 5
 3 13.599609375 l 5
 3.5 13.900390625 4 14 4.5 14 c 6
 6.099609375 14 l 6
 6.7998046875 14 7.5 13.7001953125 8 13.2998046875 c 4
 8.599609375 13.7001953125 9.2001953125 14 10 14 c 6
 13.599609375 14 l 6
EndSplineSet
EndChar

StartChar: p
Encoding: 112 112 71
Width: 14
Flags: HW
LayerCount: 2
Fore
SplineSet
11.5 14 m 2
 12.2998046875 14 13 13.2998046875 13 12.5 c 2
 13 1.5 l 2
 13 0.7001953125 12.2998046875 0 11.5 0 c 2
 4.5 0 l 2
 4 0 3.5 0.2001953125 3 0.400390625 c 1
 3 -4 l 1
 1 -4 l 1
 1 3.5 l 1
 1 10.5 l 1
 1 14 l 1
 3 14 l 1
 3 13.599609375 l 1
 3.5 13.900390625 4 14 4.5 14 c 2
 11.5 14 l 2
11 2 m 1
 11 12 l 1
 4.5 12 l 2
 3.7001953125 12 3 11.2998046875 3 10.5 c 2
 3 3.5 l 2
 3 2.7001953125 3.7001953125 2 4.5 2 c 2
 11 2 l 1
EndSplineSet
EndChar

StartChar: q
Encoding: 113 113 72
Width: 14
Flags: HW
LayerCount: 2
Fore
SplineSet
11 14 m 1
 13 14 l 1
 13 10.5 l 1
 13 3.5 l 1
 13 -4 l 1
 11 -4 l 1
 11 0.400390625 l 1
 10.5 0.099609375 10 0 9.5 0 c 2
 2.5 0 l 2
 1.7001953125 0 1 0.7001953125 1 1.5 c 2
 1 12.5 l 2
 1 13.2998046875 1.7001953125 14 2.5 14 c 2
 9.5 14 l 2
 10 14 10.5 13.900390625 11 13.599609375 c 1
 11 14 l 1
9.5 2 m 2
 10.2998046875 2 11 2.7001953125 11 3.5 c 2
 11 10.5 l 2
 11 11.2998046875 10.2998046875 12 9.5 12 c 2
 3 12 l 1
 3 2 l 1
 9.5 2 l 2
EndSplineSet
EndChar

StartChar: v
Encoding: 118 118 73
Width: 16
Flags: HW
LayerCount: 2
Fore
SplineSet
1 14 m 1
 3.2001953125 14 l 1
 7.5 4 l 2
 7.599609375 3.7998046875 7.900390625 3.7998046875 8 4 c 2
 12.5 14 l 1
 14.7001953125 14 l 1
 8.7001953125 0.2998046875 l 2
 8.599609375 0.099609375 8.400390625 0 8.2001953125 0 c 2
 7.5 0 l 2
 7.2998046875 0 7.099609375 0.099609375 7 0.2998046875 c 2
 1 14 l 1
EndSplineSet
EndChar

StartChar: w
Encoding: 119 119 74
Width: 20
Flags: HW
LayerCount: 2
Fore
SplineSet
17.099609375 14 m 1
 19.2001953125 14 l 1
 15 0.2998046875 l 2
 14.900390625 0.099609375 14.7001953125 0 14.5 0 c 2
 13.7998046875 0 l 2
 13.599609375 0 13.400390625 0.099609375 13.2998046875 0.2998046875 c 2
 10.099609375 10.400390625 l 1
 7 0.2998046875 l 2
 6.900390625 0.099609375 6.7001953125 0 6.5 0 c 2
 5.7998046875 0 l 2
 5.599609375 0 5.400390625 0.099609375 5.2998046875 0.2998046875 c 2
 1 14 l 1
 1.099609375 14 l 1
 3.099609375 14 l 1
 5.900390625 5.2001953125 l 2
 6 4.900390625 6.2998046875 4.900390625 6.400390625 5.2001953125 c 2
 9 13.7001953125 l 2
 9.099609375 13.900390625 9.2998046875 14 9.5 14 c 2
 10.7001953125 14 l 2
 10.900390625 14 11.099609375 13.900390625 11.099609375 13.7001953125 c 2
 13.7998046875 5.2001953125 l 2
 13.900390625 5 14.2001953125 5 14.2998046875 5.2001953125 c 2
 17.099609375 14 l 1
EndSplineSet
EndChar

StartChar: x
Encoding: 120 120 75
Width: 16
Flags: HW
LayerCount: 2
Fore
SplineSet
1 0 m 1
 6.5 6.900390625 l 2
 6.599609375 7 6.599609375 7.099609375 6.5 7.2001953125 c 2
 1 14 l 1
 3.599609375 14 l 1
 7.599609375 8.900390625 l 2
 7.7001953125 8.7998046875 7.900390625 8.7998046875 8 8.900390625 c 2
 12.099609375 14 l 1
 14.7001953125 14 l 1
 9.2998046875 7.099609375 l 2
 9.2001953125 7 9.2001953125 6.900390625 9.2998046875 6.7998046875 c 2
 14.7998046875 0 l 1
 12.2001953125 0 l 1
 8.099609375 5.099609375 l 2
 8 5.2001953125 7.7998046875 5.2001953125 7.7001953125 5.099609375 c 2
 3.599609375 0 l 1
 1 0 l 1
EndSplineSet
EndChar

StartChar: z
Encoding: 122 122 76
Width: 16
Flags: HW
LayerCount: 2
Fore
SplineSet
15 2 m 1
 15 0 l 1
 1 0 l 1
 1 1.2998046875 l 2
 1 1.400390625 1.099609375 1.5 1.099609375 1.5 c 1
 11.599609375 12 l 1
 1 12 l 1
 1 14 l 1
 15 14 l 1
 15 12.7001953125 l 2
 15 12.599609375 14.900390625 12.5 14.900390625 12.5 c 1
 4.400390625 2 l 1
 15 2 l 1
EndSplineSet
EndChar

StartChar: numbersign
Encoding: 35 35 77
Width: 18
Flags: HW
LayerCount: 2
Fore
SplineSet
13.7001953125 20 m 1
 13.2001953125 14 l 1
 17 14 l 1
 17 12 l 1
 13.099609375 12 l 1
 12.7001953125 7 l 1
 16 7 l 1
 16 5 l 1
 12.599609375 5 l 1
 12.2001953125 0 l 1
 10.2001953125 0 l 1
 10.599609375 5 l 1
 6.5 5 l 1
 6.099609375 0 l 1
 4.099609375 0 l 1
 4.5 5 l 1
 1 5 l 1
 1 7 l 1
 4.599609375 7 l 1
 5 12 l 1
 2 12 l 1
 2 14 l 1
 5.099609375 14 l 1
 5.599609375 20 l 1
 7.599609375 20 l 1
 7.099609375 14 l 1
 11.2001953125 14 l 1
 11.7001953125 20 l 1
 13.7001953125 20 l 1
10.7001953125 7 m 1
 11.099609375 12 l 1
 7 12 l 1
 6.599609375 7 l 1
 10.7001953125 7 l 1
EndSplineSet
EndChar

StartChar: backslash
Encoding: 92 92 78
Width: 14
Flags: HW
LayerCount: 2
Fore
SplineSet
10.7998046875 0 m 1
 1 20 l 1
 3.2001953125 20 l 1
 13.099609375 0 l 1
 10.7998046875 0 l 1
EndSplineSet
EndChar

StartChar: percent
Encoding: 37 37 79
Width: 16
Flags: HW
LayerCount: 2
Fore
SplineSet
5.7998046875 12.2001953125 m 2
 2.7998046875 12.2001953125 l 2
 1.7998046875 12.2001953125 1 13 1 14 c 2
 1 18 l 2
 1 19 1.7998046875 19.7998046875 2.7998046875 19.7998046875 c 2
 5.7998046875 19.7998046875 l 2
 6.7998046875 19.7998046875 7.599609375 19 7.599609375 18 c 2
 7.599609375 14 l 2
 7.5 13 6.7001953125 12.2001953125 5.7998046875 12.2001953125 c 2
2.7998046875 18.2001953125 m 2
 2.599609375 18.2001953125 2.5 18.099609375 2.5 18 c 2
 2.5 14 l 2
 2.5 13.900390625 2.599609375 13.7998046875 2.7001953125 13.7998046875 c 2
 5.7001953125 13.7998046875 l 2
 5.900390625 13.7998046875 6 13.900390625 6 14 c 2
 6 18 l 2
 6 18.099609375 5.900390625 18.2001953125 5.7998046875 18.2001953125 c 2
 2.7998046875 18.2001953125 l 2
12.7998046875 0.2001953125 m 2
 9.7998046875 0.2001953125 l 2
 8.7998046875 0.2001953125 8 1 8 2 c 2
 8 6 l 2
 8 7 8.7998046875 7.7998046875 9.7998046875 7.7998046875 c 2
 12.7998046875 7.7998046875 l 2
 13.7998046875 7.7998046875 14.599609375 7 14.599609375 6 c 2
 14.599609375 2 l 2
 14.5 1 13.7001953125 0.2001953125 12.7998046875 0.2001953125 c 2
9.7998046875 6.2001953125 m 2
 9.7001953125 6.2001953125 9.599609375 6.099609375 9.599609375 6 c 2
 9.599609375 2 l 2
 9.599609375 1.900390625 9.7001953125 1.7998046875 9.7998046875 1.7998046875 c 2
 12.7998046875 1.7998046875 l 2
 12.900390625 1.7998046875 13 1.900390625 13 2 c 2
 13 6 l 2
 13 6.099609375 12.900390625 6.2001953125 12.7998046875 6.2001953125 c 2
 9.7998046875 6.2001953125 l 2
4 0 m 1
 1.7998046875 0 l 1
 11.5 20 l 1
 13.7001953125 20 l 1
 4 0 l 1
EndSplineSet
EndChar

StartChar: parenleft
Encoding: 40 40 80
Width: 8
Flags: HW
LayerCount: 2
Fore
SplineSet
6.400390625 -2 m 5
 4.099609375 -2 l 6
 2.5 1 1 5.099609375 1 10 c 4
 1 15 2.400390625 19.099609375 3.900390625 22 c 6
 6.2001953125 22 l 5
 4.599609375 19.2001953125 3 15.099609375 3 10 c 4
 3 4.900390625 4.7001953125 0.7998046875 6.400390625 -2 c 5
EndSplineSet
EndChar

StartChar: parenright
Encoding: 41 41 81
Width: 8
Flags: HW
LayerCount: 2
Fore
SplineSet
1 -2 m 1
 2.7001953125 0.7998046875 4.400390625 4.900390625 4.400390625 10 c 0
 4.400390625 15.099609375 2.7998046875 19.2001953125 1.2001953125 22 c 1
 3.5 22 l 2
 5 19.099609375 6.5 15 6.400390625 10 c 0
 6.400390625 5.099609375 4.900390625 1 3.2998046875 -2 c 2
 1 -2 l 1
EndSplineSet
EndChar

StartChar: less
Encoding: 60 60 82
Width: 15
Flags: HW
LayerCount: 2
Fore
SplineSet
13.7001953125 0 m 1
 10.900390625 0 l 1
 1.099609375 9.7998046875 l 2
 1 9.900390625 1 10.099609375 1.099609375 10.2001953125 c 2
 10.900390625 20 l 1
 13.7001953125 20 l 1
 3.7001953125 10 l 1
 13.7001953125 0 l 1
EndSplineSet
EndChar

StartChar: greater
Encoding: 62 62 83
Width: 15
Flags: HW
LayerCount: 2
Fore
SplineSet
1 0 m 1
 11 10 l 1
 1 20 l 1
 3.7998046875 20 l 1
 13.599609375 10.2001953125 l 2
 13.7001953125 10.099609375 13.7001953125 9.900390625 13.599609375 9.7998046875 c 2
 3.7998046875 0 l 1
 1 0 l 1
EndSplineSet
EndChar

StartChar: bracketleft
Encoding: 91 91 84
Width: 8
Flags: HW
LayerCount: 2
Fore
SplineSet
6.900390625 -1.7001953125 m 1
 2.5 -1.7001953125 l 2
 1.7001953125 -1.7001953125 1 -1 1 -0.2001953125 c 2
 1 20.5 l 2
 1 21.2998046875 1.7001953125 22 2.5 22 c 2
 6.900390625 22 l 1
 6.900390625 20 l 1
 3 20 l 1
 3 0.2998046875 l 1
 6.900390625 0.2998046875 l 1
 6.900390625 -1.7001953125 l 1
EndSplineSet
EndChar

StartChar: bracketright
Encoding: 93 93 85
Width: 8
Flags: HW
LayerCount: 2
Fore
SplineSet
5.400390625 -1.7001953125 m 2
 1 -1.7001953125 l 1
 1 0.2998046875 l 1
 4.900390625 0.2998046875 l 1
 4.900390625 20 l 1
 1 20 l 1
 1 22 l 1
 5.400390625 22 l 2
 6.2001953125 22 6.900390625 21.2998046875 6.900390625 20.5 c 2
 6.900390625 -0.2001953125 l 2
 6.900390625 -1 6.2001953125 -1.7001953125 5.400390625 -1.7001953125 c 2
EndSplineSet
EndChar

StartChar: underscore
Encoding: 95 95 86
Width: 20
Flags: HW
LayerCount: 2
Fore
SplineSet
1 0 m 1
 1 2 l 1
 19.2001953125 2 l 1
 19.2001953125 0 l 1
 1 0 l 1
EndSplineSet
EndChar

StartChar: braceleft
Encoding: 123 123 87
Width: 10
Flags: HW
LayerCount: 2
Fore
SplineSet
8.599609375 -2.2998046875 m 1
 6.2998046875 -2.2998046875 l 2
 4.400390625 -2.2998046875 2.7998046875 -0.7001953125 2.7998046875 1.2001953125 c 2
 2.7998046875 5.2998046875 l 2
 2.7998046875 6.7001953125 2.2998046875 8.099609375 1.2998046875 9.2001953125 c 1
 1.2998046875 9.2001953125 l 1
 0.900390625 9.599609375 0.900390625 10.2001953125 1.2998046875 10.599609375 c 1
 1.2998046875 10.599609375 l 1
 2.2998046875 11.7001953125 2.7998046875 13 2.7998046875 14.5 c 2
 2.7998046875 18.5 l 2
 2.7998046875 20.400390625 4.2998046875 22 6.2998046875 22 c 2
 8.599609375 22 l 1
 8.599609375 20 l 1
 6.2998046875 20 l 2
 5.400390625 20 4.7998046875 19.2998046875 4.7998046875 18.5 c 2
 4.7998046875 14.400390625 l 2
 4.7998046875 12.7998046875 4.2998046875 11.2001953125 3.2998046875 9.900390625 c 0
 4.2998046875 8.599609375 4.7998046875 7 4.7998046875 5.400390625 c 2
 4.7998046875 1.2998046875 l 2
 4.7998046875 0.5 5.5 -0.2001953125 6.2998046875 -0.2001953125 c 2
 8.599609375 -0.2001953125 l 1
 8.599609375 -2.2998046875 l 1
EndSplineSet
EndChar

StartChar: bar
Encoding: 124 124 88
Width: 4
Flags: HW
LayerCount: 2
Fore
SplineSet
1 -2 m 1
 1 22 l 1
 3 22 l 1
 3 -2 l 1
 1 -2 l 1
EndSplineSet
EndChar

StartChar: braceright
Encoding: 125 125 89
Width: 10
Flags: HW
LayerCount: 2
Fore
SplineSet
1 -2.2998046875 m 1
 1 -0.2001953125 l 1
 3.2998046875 -0.2001953125 l 2
 4.099609375 -0.2001953125 4.7998046875 0.5 4.7998046875 1.2998046875 c 2
 4.7998046875 5.400390625 l 2
 4.7998046875 7 5.2998046875 8.599609375 6.2998046875 9.900390625 c 0
 5.2998046875 11.2001953125 4.7998046875 12.7998046875 4.7998046875 14.400390625 c 2
 4.7998046875 18.5 l 2
 4.7998046875 19.2998046875 4.099609375 20 3.2998046875 20 c 2
 1 20 l 1
 1 22 l 1
 3.2998046875 22 l 2
 5.2998046875 22 6.7998046875 20.400390625 6.7998046875 18.5 c 2
 6.7998046875 14.5 l 2
 6.7998046875 13 7.2998046875 11.7001953125 8.2998046875 10.599609375 c 1
 8.2998046875 10.599609375 l 1
 8.7001953125 10.2001953125 8.7001953125 9.599609375 8.2998046875 9.2001953125 c 1
 8.2998046875 9.2001953125 l 1
 7.2998046875 8.099609375 6.7998046875 6.7001953125 6.7998046875 5.2998046875 c 2
 6.7998046875 1.2001953125 l 2
 6.7998046875 -0.7001953125 5.2001953125 -2.2998046875 3.2998046875 -2.2998046875 c 2
 1 -2.2998046875 l 1
EndSplineSet
EndChar

StartChar: asciicircum
Encoding: 94 94 90
Width: 11
Flags: HW
LayerCount: 2
Fore
SplineSet
9.099609375 14.099609375 m 5
 5.2998046875 18.5 l 5
 1.7001953125 14.099609375 l 5
 1 15.099609375 l 5
 4.5 21 l 5
 6.2001953125 21 l 5
 9.7998046875 15.099609375 l 5
 9.099609375 14.099609375 l 5
EndSplineSet
EndChar

StartChar: asciitilde
Encoding: 126 126 91
Width: 16
Flags: HW
LayerCount: 2
Fore
SplineSet
2 16.2001953125 m 5
 1.400390625 17.400390625 l 5
 1 18.2001953125 l 6
 2.099609375 19.599609375 3.2998046875 20.400390625 4.7001953125 20.599609375 c 4
 6.2001953125 20.7998046875 7.2998046875 20.099609375 8.2998046875 19.5 c 4
 9.099609375 19 9.900390625 18.5 10.7001953125 18.599609375 c 4
 11.5 18.7001953125 12.2998046875 19.2001953125 13 20.2001953125 c 6
 13.599609375 21 l 5
 14.2001953125 19.7998046875 l 5
 14.599609375 19 l 6
 13.5 17.599609375 12.2998046875 16.7998046875 10.900390625 16.599609375 c 4
 9.400390625 16.400390625 8.2998046875 17.099609375 7.2998046875 17.7001953125 c 4
 6.400390625 18.2998046875 5.7001953125 18.7001953125 4.900390625 18.599609375 c 4
 4.099609375 18.5 3.2998046875 18 2.599609375 17 c 6
 2 16.2001953125 l 5
EndSplineSet
EndChar
